%TF.GenerationSoftware,KiCad,Pcbnew,9.0.6*%
%TF.CreationDate,2025-11-11T22:46:24-08:00*%
%TF.ProjectId,HPA300,48504133-3030-42e6-9b69-6361645f7063,rev?*%
%TF.SameCoordinates,Original*%
%TF.FileFunction,Soldermask,Top*%
%TF.FilePolarity,Negative*%
%FSLAX46Y46*%
G04 Gerber Fmt 4.6, Leading zero omitted, Abs format (unit mm)*
G04 Created by KiCad (PCBNEW 9.0.6) date 2025-11-11 22:46:24*
%MOMM*%
%LPD*%
G01*
G04 APERTURE LIST*
G04 Aperture macros list*
%AMRoundRect*
0 Rectangle with rounded corners*
0 $1 Rounding radius*
0 $2 $3 $4 $5 $6 $7 $8 $9 X,Y pos of 4 corners*
0 Add a 4 corners polygon primitive as box body*
4,1,4,$2,$3,$4,$5,$6,$7,$8,$9,$2,$3,0*
0 Add four circle primitives for the rounded corners*
1,1,$1+$1,$2,$3*
1,1,$1+$1,$4,$5*
1,1,$1+$1,$6,$7*
1,1,$1+$1,$8,$9*
0 Add four rect primitives between the rounded corners*
20,1,$1+$1,$2,$3,$4,$5,0*
20,1,$1+$1,$4,$5,$6,$7,0*
20,1,$1+$1,$6,$7,$8,$9,0*
20,1,$1+$1,$8,$9,$2,$3,0*%
G04 Aperture macros list end*
%ADD10C,0.600000*%
%ADD11RoundRect,0.102000X0.754000X0.754000X-0.754000X0.754000X-0.754000X-0.754000X0.754000X-0.754000X0*%
%ADD12C,1.712000*%
%ADD13R,1.800000X1.800000*%
%ADD14C,1.800000*%
%ADD15C,0.800000*%
%ADD16C,7.000000*%
%ADD17C,0.650000*%
%ADD18C,0.990600*%
G04 APERTURE END LIST*
D10*
%TO.C,KEY2*%
X226007181Y-95252155D02*
G75*
G02*
X226502155Y-94757181I247487J247487D01*
G01*
X241499890Y-109754916D02*
G75*
G02*
X241004916Y-110249890I-247487J-247487D01*
G01*
%TO.C,KEY5*%
X76004869Y-87996891D02*
G75*
G02*
X76354869Y-88603109I175000J-303109D01*
G01*
X57986470Y-99208109D02*
G75*
G02*
X57636470Y-98601891I-175000J303109D01*
G01*
%TO.C,KEY6*%
X32650000Y-91900000D02*
G75*
G02*
X33350000Y-91900000I350000J0D01*
G01*
X33350000Y-113110000D02*
G75*
G02*
X32650000Y-113110000I-350000J0D01*
G01*
%TO.C,KEY4*%
X76004869Y-105796891D02*
G75*
G02*
X76354869Y-106403109I175000J-303109D01*
G01*
X57986470Y-117008109D02*
G75*
G02*
X57636470Y-116401891I-175000J303109D01*
G01*
%TO.C,KEY1*%
X157247845Y-94757181D02*
G75*
G02*
X157742819Y-95252155I247487J-247487D01*
G01*
X142745084Y-110249890D02*
G75*
G02*
X142250110Y-109754916I-247487J247487D01*
G01*
%TO.C,KEY3*%
X266650000Y-91900000D02*
G75*
G02*
X267350000Y-91900000I350000J0D01*
G01*
X267350000Y-113110000D02*
G75*
G02*
X266650000Y-113110000I-350000J0D01*
G01*
%TD*%
D11*
%TO.C,J1*%
X98250000Y-86200000D03*
D12*
X95750000Y-86200000D03*
X93250000Y-86200000D03*
X90750000Y-86200000D03*
X88250000Y-86200000D03*
X85750000Y-86200000D03*
%TD*%
D13*
%TO.C,D4*%
X220270000Y-102500000D03*
D14*
X217730000Y-102500000D03*
%TD*%
D13*
%TO.C,D7*%
X220270000Y-112500000D03*
D14*
X217730000Y-112500000D03*
%TD*%
D13*
%TO.C,D9*%
X50730000Y-112500000D03*
D14*
X53270000Y-112500000D03*
%TD*%
D15*
%TO.C,H3*%
X154075000Y-122450000D03*
X154843845Y-120593845D03*
X154843845Y-124306155D03*
X156700000Y-119825000D03*
D16*
X156700000Y-122450000D03*
D15*
X156700000Y-125075000D03*
X158556155Y-120593845D03*
X158556155Y-124306155D03*
X159325000Y-122450000D03*
%TD*%
D13*
%TO.C,D2*%
X80730000Y-93600000D03*
D14*
X83270000Y-93600000D03*
%TD*%
D15*
%TO.C,H2*%
X154075000Y-82500000D03*
X154843845Y-80643845D03*
X154843845Y-84356155D03*
X156700000Y-79875000D03*
D16*
X156700000Y-82500000D03*
D15*
X156700000Y-85125000D03*
X158556155Y-80643845D03*
X158556155Y-84356155D03*
X159325000Y-82500000D03*
%TD*%
%TO.C,H4*%
X202375000Y-102500000D03*
X203143845Y-100643845D03*
X203143845Y-104356155D03*
X205000000Y-99875000D03*
D16*
X205000000Y-102500000D03*
D15*
X205000000Y-105125000D03*
X206856155Y-100643845D03*
X206856155Y-104356155D03*
X207625000Y-102500000D03*
%TD*%
D13*
%TO.C,D3*%
X50730000Y-92500000D03*
D14*
X53270000Y-92500000D03*
%TD*%
D13*
%TO.C,D5*%
X80730000Y-111400000D03*
D14*
X83270000Y-111400000D03*
%TD*%
D13*
%TO.C,D8*%
X250270000Y-102500000D03*
D14*
X247730000Y-102500000D03*
%TD*%
D13*
%TO.C,D6*%
X50730000Y-102500000D03*
D14*
X53270000Y-102500000D03*
%TD*%
D13*
%TO.C,D1*%
X220270000Y-92500000D03*
D14*
X217730000Y-92500000D03*
%TD*%
D15*
%TO.C,H1*%
X92375000Y-102500000D03*
X93143845Y-100643845D03*
X93143845Y-104356155D03*
X95000000Y-99875000D03*
D16*
X95000000Y-102500000D03*
D15*
X95000000Y-105125000D03*
X96856155Y-100643845D03*
X96856155Y-104356155D03*
X97625000Y-102500000D03*
%TD*%
D17*
%TO.C,J2*%
X167910000Y-83315000D03*
X173690000Y-83315000D03*
%TD*%
D18*
%TO.C,J3*%
X208650000Y-84060000D03*
X209666000Y-89140000D03*
X207634000Y-89140000D03*
%TD*%
M02*
