%TF.GenerationSoftware,KiCad,Pcbnew,9.0.6*%
%TF.CreationDate,2025-11-11T22:46:23-08:00*%
%TF.ProjectId,HPA300,48504133-3030-42e6-9b69-6361645f7063,rev?*%
%TF.SameCoordinates,Original*%
%TF.FileFunction,Legend,Top*%
%TF.FilePolarity,Positive*%
%FSLAX46Y46*%
G04 Gerber Fmt 4.6, Leading zero omitted, Abs format (unit mm)*
G04 Created by KiCad (PCBNEW 9.0.6) date 2025-11-11 22:46:23*
%MOMM*%
%LPD*%
G01*
G04 APERTURE LIST*
%ADD10C,0.150000*%
%ADD11C,0.100000*%
%ADD12C,0.200000*%
%ADD13C,0.120000*%
G04 APERTURE END LIST*
D10*
X86382493Y-79839819D02*
X86382493Y-80554104D01*
X86382493Y-80554104D02*
X86334874Y-80696961D01*
X86334874Y-80696961D02*
X86239636Y-80792200D01*
X86239636Y-80792200D02*
X86096779Y-80839819D01*
X86096779Y-80839819D02*
X86001541Y-80839819D01*
X87334874Y-80839819D02*
X86858684Y-80839819D01*
X86858684Y-80839819D02*
X86858684Y-79839819D01*
X88239636Y-80744580D02*
X88192017Y-80792200D01*
X88192017Y-80792200D02*
X88049160Y-80839819D01*
X88049160Y-80839819D02*
X87953922Y-80839819D01*
X87953922Y-80839819D02*
X87811065Y-80792200D01*
X87811065Y-80792200D02*
X87715827Y-80696961D01*
X87715827Y-80696961D02*
X87668208Y-80601723D01*
X87668208Y-80601723D02*
X87620589Y-80411247D01*
X87620589Y-80411247D02*
X87620589Y-80268390D01*
X87620589Y-80268390D02*
X87668208Y-80077914D01*
X87668208Y-80077914D02*
X87715827Y-79982676D01*
X87715827Y-79982676D02*
X87811065Y-79887438D01*
X87811065Y-79887438D02*
X87953922Y-79839819D01*
X87953922Y-79839819D02*
X88049160Y-79839819D01*
X88049160Y-79839819D02*
X88192017Y-79887438D01*
X88192017Y-79887438D02*
X88239636Y-79935057D01*
X88953922Y-79839819D02*
X88953922Y-80554104D01*
X88953922Y-80554104D02*
X88906303Y-80696961D01*
X88906303Y-80696961D02*
X88811065Y-80792200D01*
X88811065Y-80792200D02*
X88668208Y-80839819D01*
X88668208Y-80839819D02*
X88572970Y-80839819D01*
X89906303Y-80839819D02*
X89430113Y-80839819D01*
X89430113Y-80839819D02*
X89430113Y-79839819D01*
X90811065Y-80744580D02*
X90763446Y-80792200D01*
X90763446Y-80792200D02*
X90620589Y-80839819D01*
X90620589Y-80839819D02*
X90525351Y-80839819D01*
X90525351Y-80839819D02*
X90382494Y-80792200D01*
X90382494Y-80792200D02*
X90287256Y-80696961D01*
X90287256Y-80696961D02*
X90239637Y-80601723D01*
X90239637Y-80601723D02*
X90192018Y-80411247D01*
X90192018Y-80411247D02*
X90192018Y-80268390D01*
X90192018Y-80268390D02*
X90239637Y-80077914D01*
X90239637Y-80077914D02*
X90287256Y-79982676D01*
X90287256Y-79982676D02*
X90382494Y-79887438D01*
X90382494Y-79887438D02*
X90525351Y-79839819D01*
X90525351Y-79839819D02*
X90620589Y-79839819D01*
X90620589Y-79839819D02*
X90763446Y-79887438D01*
X90763446Y-79887438D02*
X90811065Y-79935057D01*
X91525351Y-79839819D02*
X91525351Y-80554104D01*
X91525351Y-80554104D02*
X91477732Y-80696961D01*
X91477732Y-80696961D02*
X91382494Y-80792200D01*
X91382494Y-80792200D02*
X91239637Y-80839819D01*
X91239637Y-80839819D02*
X91144399Y-80839819D01*
X92477732Y-80839819D02*
X92001542Y-80839819D01*
X92001542Y-80839819D02*
X92001542Y-79839819D01*
X93382494Y-80744580D02*
X93334875Y-80792200D01*
X93334875Y-80792200D02*
X93192018Y-80839819D01*
X93192018Y-80839819D02*
X93096780Y-80839819D01*
X93096780Y-80839819D02*
X92953923Y-80792200D01*
X92953923Y-80792200D02*
X92858685Y-80696961D01*
X92858685Y-80696961D02*
X92811066Y-80601723D01*
X92811066Y-80601723D02*
X92763447Y-80411247D01*
X92763447Y-80411247D02*
X92763447Y-80268390D01*
X92763447Y-80268390D02*
X92811066Y-80077914D01*
X92811066Y-80077914D02*
X92858685Y-79982676D01*
X92858685Y-79982676D02*
X92953923Y-79887438D01*
X92953923Y-79887438D02*
X93096780Y-79839819D01*
X93096780Y-79839819D02*
X93192018Y-79839819D01*
X93192018Y-79839819D02*
X93334875Y-79887438D01*
X93334875Y-79887438D02*
X93382494Y-79935057D01*
X232130952Y-109404819D02*
X232130952Y-108404819D01*
X232702380Y-109404819D02*
X232273809Y-108833390D01*
X232702380Y-108404819D02*
X232130952Y-108976247D01*
X233130952Y-108881009D02*
X233464285Y-108881009D01*
X233607142Y-109404819D02*
X233130952Y-109404819D01*
X233130952Y-109404819D02*
X233130952Y-108404819D01*
X233130952Y-108404819D02*
X233607142Y-108404819D01*
X234226190Y-108928628D02*
X234226190Y-109404819D01*
X233892857Y-108404819D02*
X234226190Y-108928628D01*
X234226190Y-108928628D02*
X234559523Y-108404819D01*
X234845238Y-108500057D02*
X234892857Y-108452438D01*
X234892857Y-108452438D02*
X234988095Y-108404819D01*
X234988095Y-108404819D02*
X235226190Y-108404819D01*
X235226190Y-108404819D02*
X235321428Y-108452438D01*
X235321428Y-108452438D02*
X235369047Y-108500057D01*
X235369047Y-108500057D02*
X235416666Y-108595295D01*
X235416666Y-108595295D02*
X235416666Y-108690533D01*
X235416666Y-108690533D02*
X235369047Y-108833390D01*
X235369047Y-108833390D02*
X234797619Y-109404819D01*
X234797619Y-109404819D02*
X235416666Y-109404819D01*
X65350952Y-100264819D02*
X65350952Y-99264819D01*
X65922380Y-100264819D02*
X65493809Y-99693390D01*
X65922380Y-99264819D02*
X65350952Y-99836247D01*
X66350952Y-99741009D02*
X66684285Y-99741009D01*
X66827142Y-100264819D02*
X66350952Y-100264819D01*
X66350952Y-100264819D02*
X66350952Y-99264819D01*
X66350952Y-99264819D02*
X66827142Y-99264819D01*
X67446190Y-99788628D02*
X67446190Y-100264819D01*
X67112857Y-99264819D02*
X67446190Y-99788628D01*
X67446190Y-99788628D02*
X67779523Y-99264819D01*
X68589047Y-99264819D02*
X68112857Y-99264819D01*
X68112857Y-99264819D02*
X68065238Y-99741009D01*
X68065238Y-99741009D02*
X68112857Y-99693390D01*
X68112857Y-99693390D02*
X68208095Y-99645771D01*
X68208095Y-99645771D02*
X68446190Y-99645771D01*
X68446190Y-99645771D02*
X68541428Y-99693390D01*
X68541428Y-99693390D02*
X68589047Y-99741009D01*
X68589047Y-99741009D02*
X68636666Y-99836247D01*
X68636666Y-99836247D02*
X68636666Y-100074342D01*
X68636666Y-100074342D02*
X68589047Y-100169580D01*
X68589047Y-100169580D02*
X68541428Y-100217200D01*
X68541428Y-100217200D02*
X68446190Y-100264819D01*
X68446190Y-100264819D02*
X68208095Y-100264819D01*
X68208095Y-100264819D02*
X68112857Y-100217200D01*
X68112857Y-100217200D02*
X68065238Y-100169580D01*
X101656666Y-86884819D02*
X101656666Y-87599104D01*
X101656666Y-87599104D02*
X101609047Y-87741961D01*
X101609047Y-87741961D02*
X101513809Y-87837200D01*
X101513809Y-87837200D02*
X101370952Y-87884819D01*
X101370952Y-87884819D02*
X101275714Y-87884819D01*
X102656666Y-87884819D02*
X102085238Y-87884819D01*
X102370952Y-87884819D02*
X102370952Y-86884819D01*
X102370952Y-86884819D02*
X102275714Y-87027676D01*
X102275714Y-87027676D02*
X102180476Y-87122914D01*
X102180476Y-87122914D02*
X102085238Y-87170533D01*
X31380952Y-109454819D02*
X31380952Y-108454819D01*
X31952380Y-109454819D02*
X31523809Y-108883390D01*
X31952380Y-108454819D02*
X31380952Y-109026247D01*
X32380952Y-108931009D02*
X32714285Y-108931009D01*
X32857142Y-109454819D02*
X32380952Y-109454819D01*
X32380952Y-109454819D02*
X32380952Y-108454819D01*
X32380952Y-108454819D02*
X32857142Y-108454819D01*
X33476190Y-108978628D02*
X33476190Y-109454819D01*
X33142857Y-108454819D02*
X33476190Y-108978628D01*
X33476190Y-108978628D02*
X33809523Y-108454819D01*
X34571428Y-108454819D02*
X34380952Y-108454819D01*
X34380952Y-108454819D02*
X34285714Y-108502438D01*
X34285714Y-108502438D02*
X34238095Y-108550057D01*
X34238095Y-108550057D02*
X34142857Y-108692914D01*
X34142857Y-108692914D02*
X34095238Y-108883390D01*
X34095238Y-108883390D02*
X34095238Y-109264342D01*
X34095238Y-109264342D02*
X34142857Y-109359580D01*
X34142857Y-109359580D02*
X34190476Y-109407200D01*
X34190476Y-109407200D02*
X34285714Y-109454819D01*
X34285714Y-109454819D02*
X34476190Y-109454819D01*
X34476190Y-109454819D02*
X34571428Y-109407200D01*
X34571428Y-109407200D02*
X34619047Y-109359580D01*
X34619047Y-109359580D02*
X34666666Y-109264342D01*
X34666666Y-109264342D02*
X34666666Y-109026247D01*
X34666666Y-109026247D02*
X34619047Y-108931009D01*
X34619047Y-108931009D02*
X34571428Y-108883390D01*
X34571428Y-108883390D02*
X34476190Y-108835771D01*
X34476190Y-108835771D02*
X34285714Y-108835771D01*
X34285714Y-108835771D02*
X34190476Y-108883390D01*
X34190476Y-108883390D02*
X34142857Y-108931009D01*
X34142857Y-108931009D02*
X34095238Y-109026247D01*
X65350952Y-118314819D02*
X65350952Y-117314819D01*
X65922380Y-118314819D02*
X65493809Y-117743390D01*
X65922380Y-117314819D02*
X65350952Y-117886247D01*
X66350952Y-117791009D02*
X66684285Y-117791009D01*
X66827142Y-118314819D02*
X66350952Y-118314819D01*
X66350952Y-118314819D02*
X66350952Y-117314819D01*
X66350952Y-117314819D02*
X66827142Y-117314819D01*
X67446190Y-117838628D02*
X67446190Y-118314819D01*
X67112857Y-117314819D02*
X67446190Y-117838628D01*
X67446190Y-117838628D02*
X67779523Y-117314819D01*
X68541428Y-117648152D02*
X68541428Y-118314819D01*
X68303333Y-117267200D02*
X68065238Y-117981485D01*
X68065238Y-117981485D02*
X68684285Y-117981485D01*
X148370952Y-109164819D02*
X148370952Y-108164819D01*
X148942380Y-109164819D02*
X148513809Y-108593390D01*
X148942380Y-108164819D02*
X148370952Y-108736247D01*
X149370952Y-108641009D02*
X149704285Y-108641009D01*
X149847142Y-109164819D02*
X149370952Y-109164819D01*
X149370952Y-109164819D02*
X149370952Y-108164819D01*
X149370952Y-108164819D02*
X149847142Y-108164819D01*
X150466190Y-108688628D02*
X150466190Y-109164819D01*
X150132857Y-108164819D02*
X150466190Y-108688628D01*
X150466190Y-108688628D02*
X150799523Y-108164819D01*
X151656666Y-109164819D02*
X151085238Y-109164819D01*
X151370952Y-109164819D02*
X151370952Y-108164819D01*
X151370952Y-108164819D02*
X151275714Y-108307676D01*
X151275714Y-108307676D02*
X151180476Y-108402914D01*
X151180476Y-108402914D02*
X151085238Y-108450533D01*
X265380952Y-109454819D02*
X265380952Y-108454819D01*
X265952380Y-109454819D02*
X265523809Y-108883390D01*
X265952380Y-108454819D02*
X265380952Y-109026247D01*
X266380952Y-108931009D02*
X266714285Y-108931009D01*
X266857142Y-109454819D02*
X266380952Y-109454819D01*
X266380952Y-109454819D02*
X266380952Y-108454819D01*
X266380952Y-108454819D02*
X266857142Y-108454819D01*
X267476190Y-108978628D02*
X267476190Y-109454819D01*
X267142857Y-108454819D02*
X267476190Y-108978628D01*
X267476190Y-108978628D02*
X267809523Y-108454819D01*
X268047619Y-108454819D02*
X268666666Y-108454819D01*
X268666666Y-108454819D02*
X268333333Y-108835771D01*
X268333333Y-108835771D02*
X268476190Y-108835771D01*
X268476190Y-108835771D02*
X268571428Y-108883390D01*
X268571428Y-108883390D02*
X268619047Y-108931009D01*
X268619047Y-108931009D02*
X268666666Y-109026247D01*
X268666666Y-109026247D02*
X268666666Y-109264342D01*
X268666666Y-109264342D02*
X268619047Y-109359580D01*
X268619047Y-109359580D02*
X268571428Y-109407200D01*
X268571428Y-109407200D02*
X268476190Y-109454819D01*
X268476190Y-109454819D02*
X268190476Y-109454819D01*
X268190476Y-109454819D02*
X268095238Y-109407200D01*
X268095238Y-109407200D02*
X268047619Y-109359580D01*
X218261905Y-105914819D02*
X218261905Y-104914819D01*
X218261905Y-104914819D02*
X218500000Y-104914819D01*
X218500000Y-104914819D02*
X218642857Y-104962438D01*
X218642857Y-104962438D02*
X218738095Y-105057676D01*
X218738095Y-105057676D02*
X218785714Y-105152914D01*
X218785714Y-105152914D02*
X218833333Y-105343390D01*
X218833333Y-105343390D02*
X218833333Y-105486247D01*
X218833333Y-105486247D02*
X218785714Y-105676723D01*
X218785714Y-105676723D02*
X218738095Y-105771961D01*
X218738095Y-105771961D02*
X218642857Y-105867200D01*
X218642857Y-105867200D02*
X218500000Y-105914819D01*
X218500000Y-105914819D02*
X218261905Y-105914819D01*
X219690476Y-105248152D02*
X219690476Y-105914819D01*
X219452381Y-104867200D02*
X219214286Y-105581485D01*
X219214286Y-105581485D02*
X219833333Y-105581485D01*
X218261905Y-115914819D02*
X218261905Y-114914819D01*
X218261905Y-114914819D02*
X218500000Y-114914819D01*
X218500000Y-114914819D02*
X218642857Y-114962438D01*
X218642857Y-114962438D02*
X218738095Y-115057676D01*
X218738095Y-115057676D02*
X218785714Y-115152914D01*
X218785714Y-115152914D02*
X218833333Y-115343390D01*
X218833333Y-115343390D02*
X218833333Y-115486247D01*
X218833333Y-115486247D02*
X218785714Y-115676723D01*
X218785714Y-115676723D02*
X218738095Y-115771961D01*
X218738095Y-115771961D02*
X218642857Y-115867200D01*
X218642857Y-115867200D02*
X218500000Y-115914819D01*
X218500000Y-115914819D02*
X218261905Y-115914819D01*
X219166667Y-114914819D02*
X219833333Y-114914819D01*
X219833333Y-114914819D02*
X219404762Y-115914819D01*
X51261905Y-109994819D02*
X51261905Y-108994819D01*
X51261905Y-108994819D02*
X51500000Y-108994819D01*
X51500000Y-108994819D02*
X51642857Y-109042438D01*
X51642857Y-109042438D02*
X51738095Y-109137676D01*
X51738095Y-109137676D02*
X51785714Y-109232914D01*
X51785714Y-109232914D02*
X51833333Y-109423390D01*
X51833333Y-109423390D02*
X51833333Y-109566247D01*
X51833333Y-109566247D02*
X51785714Y-109756723D01*
X51785714Y-109756723D02*
X51738095Y-109851961D01*
X51738095Y-109851961D02*
X51642857Y-109947200D01*
X51642857Y-109947200D02*
X51500000Y-109994819D01*
X51500000Y-109994819D02*
X51261905Y-109994819D01*
X52309524Y-109994819D02*
X52500000Y-109994819D01*
X52500000Y-109994819D02*
X52595238Y-109947200D01*
X52595238Y-109947200D02*
X52642857Y-109899580D01*
X52642857Y-109899580D02*
X52738095Y-109756723D01*
X52738095Y-109756723D02*
X52785714Y-109566247D01*
X52785714Y-109566247D02*
X52785714Y-109185295D01*
X52785714Y-109185295D02*
X52738095Y-109090057D01*
X52738095Y-109090057D02*
X52690476Y-109042438D01*
X52690476Y-109042438D02*
X52595238Y-108994819D01*
X52595238Y-108994819D02*
X52404762Y-108994819D01*
X52404762Y-108994819D02*
X52309524Y-109042438D01*
X52309524Y-109042438D02*
X52261905Y-109090057D01*
X52261905Y-109090057D02*
X52214286Y-109185295D01*
X52214286Y-109185295D02*
X52214286Y-109423390D01*
X52214286Y-109423390D02*
X52261905Y-109518628D01*
X52261905Y-109518628D02*
X52309524Y-109566247D01*
X52309524Y-109566247D02*
X52404762Y-109613866D01*
X52404762Y-109613866D02*
X52595238Y-109613866D01*
X52595238Y-109613866D02*
X52690476Y-109566247D01*
X52690476Y-109566247D02*
X52738095Y-109518628D01*
X52738095Y-109518628D02*
X52785714Y-109423390D01*
X81261905Y-91094819D02*
X81261905Y-90094819D01*
X81261905Y-90094819D02*
X81500000Y-90094819D01*
X81500000Y-90094819D02*
X81642857Y-90142438D01*
X81642857Y-90142438D02*
X81738095Y-90237676D01*
X81738095Y-90237676D02*
X81785714Y-90332914D01*
X81785714Y-90332914D02*
X81833333Y-90523390D01*
X81833333Y-90523390D02*
X81833333Y-90666247D01*
X81833333Y-90666247D02*
X81785714Y-90856723D01*
X81785714Y-90856723D02*
X81738095Y-90951961D01*
X81738095Y-90951961D02*
X81642857Y-91047200D01*
X81642857Y-91047200D02*
X81500000Y-91094819D01*
X81500000Y-91094819D02*
X81261905Y-91094819D01*
X82214286Y-90190057D02*
X82261905Y-90142438D01*
X82261905Y-90142438D02*
X82357143Y-90094819D01*
X82357143Y-90094819D02*
X82595238Y-90094819D01*
X82595238Y-90094819D02*
X82690476Y-90142438D01*
X82690476Y-90142438D02*
X82738095Y-90190057D01*
X82738095Y-90190057D02*
X82785714Y-90285295D01*
X82785714Y-90285295D02*
X82785714Y-90380533D01*
X82785714Y-90380533D02*
X82738095Y-90523390D01*
X82738095Y-90523390D02*
X82166667Y-91094819D01*
X82166667Y-91094819D02*
X82785714Y-91094819D01*
X51261905Y-89994819D02*
X51261905Y-88994819D01*
X51261905Y-88994819D02*
X51500000Y-88994819D01*
X51500000Y-88994819D02*
X51642857Y-89042438D01*
X51642857Y-89042438D02*
X51738095Y-89137676D01*
X51738095Y-89137676D02*
X51785714Y-89232914D01*
X51785714Y-89232914D02*
X51833333Y-89423390D01*
X51833333Y-89423390D02*
X51833333Y-89566247D01*
X51833333Y-89566247D02*
X51785714Y-89756723D01*
X51785714Y-89756723D02*
X51738095Y-89851961D01*
X51738095Y-89851961D02*
X51642857Y-89947200D01*
X51642857Y-89947200D02*
X51500000Y-89994819D01*
X51500000Y-89994819D02*
X51261905Y-89994819D01*
X52166667Y-88994819D02*
X52785714Y-88994819D01*
X52785714Y-88994819D02*
X52452381Y-89375771D01*
X52452381Y-89375771D02*
X52595238Y-89375771D01*
X52595238Y-89375771D02*
X52690476Y-89423390D01*
X52690476Y-89423390D02*
X52738095Y-89471009D01*
X52738095Y-89471009D02*
X52785714Y-89566247D01*
X52785714Y-89566247D02*
X52785714Y-89804342D01*
X52785714Y-89804342D02*
X52738095Y-89899580D01*
X52738095Y-89899580D02*
X52690476Y-89947200D01*
X52690476Y-89947200D02*
X52595238Y-89994819D01*
X52595238Y-89994819D02*
X52309524Y-89994819D01*
X52309524Y-89994819D02*
X52214286Y-89947200D01*
X52214286Y-89947200D02*
X52166667Y-89899580D01*
X81261905Y-108894819D02*
X81261905Y-107894819D01*
X81261905Y-107894819D02*
X81500000Y-107894819D01*
X81500000Y-107894819D02*
X81642857Y-107942438D01*
X81642857Y-107942438D02*
X81738095Y-108037676D01*
X81738095Y-108037676D02*
X81785714Y-108132914D01*
X81785714Y-108132914D02*
X81833333Y-108323390D01*
X81833333Y-108323390D02*
X81833333Y-108466247D01*
X81833333Y-108466247D02*
X81785714Y-108656723D01*
X81785714Y-108656723D02*
X81738095Y-108751961D01*
X81738095Y-108751961D02*
X81642857Y-108847200D01*
X81642857Y-108847200D02*
X81500000Y-108894819D01*
X81500000Y-108894819D02*
X81261905Y-108894819D01*
X82738095Y-107894819D02*
X82261905Y-107894819D01*
X82261905Y-107894819D02*
X82214286Y-108371009D01*
X82214286Y-108371009D02*
X82261905Y-108323390D01*
X82261905Y-108323390D02*
X82357143Y-108275771D01*
X82357143Y-108275771D02*
X82595238Y-108275771D01*
X82595238Y-108275771D02*
X82690476Y-108323390D01*
X82690476Y-108323390D02*
X82738095Y-108371009D01*
X82738095Y-108371009D02*
X82785714Y-108466247D01*
X82785714Y-108466247D02*
X82785714Y-108704342D01*
X82785714Y-108704342D02*
X82738095Y-108799580D01*
X82738095Y-108799580D02*
X82690476Y-108847200D01*
X82690476Y-108847200D02*
X82595238Y-108894819D01*
X82595238Y-108894819D02*
X82357143Y-108894819D01*
X82357143Y-108894819D02*
X82261905Y-108847200D01*
X82261905Y-108847200D02*
X82214286Y-108799580D01*
X248261905Y-105914819D02*
X248261905Y-104914819D01*
X248261905Y-104914819D02*
X248500000Y-104914819D01*
X248500000Y-104914819D02*
X248642857Y-104962438D01*
X248642857Y-104962438D02*
X248738095Y-105057676D01*
X248738095Y-105057676D02*
X248785714Y-105152914D01*
X248785714Y-105152914D02*
X248833333Y-105343390D01*
X248833333Y-105343390D02*
X248833333Y-105486247D01*
X248833333Y-105486247D02*
X248785714Y-105676723D01*
X248785714Y-105676723D02*
X248738095Y-105771961D01*
X248738095Y-105771961D02*
X248642857Y-105867200D01*
X248642857Y-105867200D02*
X248500000Y-105914819D01*
X248500000Y-105914819D02*
X248261905Y-105914819D01*
X249404762Y-105343390D02*
X249309524Y-105295771D01*
X249309524Y-105295771D02*
X249261905Y-105248152D01*
X249261905Y-105248152D02*
X249214286Y-105152914D01*
X249214286Y-105152914D02*
X249214286Y-105105295D01*
X249214286Y-105105295D02*
X249261905Y-105010057D01*
X249261905Y-105010057D02*
X249309524Y-104962438D01*
X249309524Y-104962438D02*
X249404762Y-104914819D01*
X249404762Y-104914819D02*
X249595238Y-104914819D01*
X249595238Y-104914819D02*
X249690476Y-104962438D01*
X249690476Y-104962438D02*
X249738095Y-105010057D01*
X249738095Y-105010057D02*
X249785714Y-105105295D01*
X249785714Y-105105295D02*
X249785714Y-105152914D01*
X249785714Y-105152914D02*
X249738095Y-105248152D01*
X249738095Y-105248152D02*
X249690476Y-105295771D01*
X249690476Y-105295771D02*
X249595238Y-105343390D01*
X249595238Y-105343390D02*
X249404762Y-105343390D01*
X249404762Y-105343390D02*
X249309524Y-105391009D01*
X249309524Y-105391009D02*
X249261905Y-105438628D01*
X249261905Y-105438628D02*
X249214286Y-105533866D01*
X249214286Y-105533866D02*
X249214286Y-105724342D01*
X249214286Y-105724342D02*
X249261905Y-105819580D01*
X249261905Y-105819580D02*
X249309524Y-105867200D01*
X249309524Y-105867200D02*
X249404762Y-105914819D01*
X249404762Y-105914819D02*
X249595238Y-105914819D01*
X249595238Y-105914819D02*
X249690476Y-105867200D01*
X249690476Y-105867200D02*
X249738095Y-105819580D01*
X249738095Y-105819580D02*
X249785714Y-105724342D01*
X249785714Y-105724342D02*
X249785714Y-105533866D01*
X249785714Y-105533866D02*
X249738095Y-105438628D01*
X249738095Y-105438628D02*
X249690476Y-105391009D01*
X249690476Y-105391009D02*
X249595238Y-105343390D01*
X51261905Y-99994819D02*
X51261905Y-98994819D01*
X51261905Y-98994819D02*
X51500000Y-98994819D01*
X51500000Y-98994819D02*
X51642857Y-99042438D01*
X51642857Y-99042438D02*
X51738095Y-99137676D01*
X51738095Y-99137676D02*
X51785714Y-99232914D01*
X51785714Y-99232914D02*
X51833333Y-99423390D01*
X51833333Y-99423390D02*
X51833333Y-99566247D01*
X51833333Y-99566247D02*
X51785714Y-99756723D01*
X51785714Y-99756723D02*
X51738095Y-99851961D01*
X51738095Y-99851961D02*
X51642857Y-99947200D01*
X51642857Y-99947200D02*
X51500000Y-99994819D01*
X51500000Y-99994819D02*
X51261905Y-99994819D01*
X52690476Y-98994819D02*
X52500000Y-98994819D01*
X52500000Y-98994819D02*
X52404762Y-99042438D01*
X52404762Y-99042438D02*
X52357143Y-99090057D01*
X52357143Y-99090057D02*
X52261905Y-99232914D01*
X52261905Y-99232914D02*
X52214286Y-99423390D01*
X52214286Y-99423390D02*
X52214286Y-99804342D01*
X52214286Y-99804342D02*
X52261905Y-99899580D01*
X52261905Y-99899580D02*
X52309524Y-99947200D01*
X52309524Y-99947200D02*
X52404762Y-99994819D01*
X52404762Y-99994819D02*
X52595238Y-99994819D01*
X52595238Y-99994819D02*
X52690476Y-99947200D01*
X52690476Y-99947200D02*
X52738095Y-99899580D01*
X52738095Y-99899580D02*
X52785714Y-99804342D01*
X52785714Y-99804342D02*
X52785714Y-99566247D01*
X52785714Y-99566247D02*
X52738095Y-99471009D01*
X52738095Y-99471009D02*
X52690476Y-99423390D01*
X52690476Y-99423390D02*
X52595238Y-99375771D01*
X52595238Y-99375771D02*
X52404762Y-99375771D01*
X52404762Y-99375771D02*
X52309524Y-99423390D01*
X52309524Y-99423390D02*
X52261905Y-99471009D01*
X52261905Y-99471009D02*
X52214286Y-99566247D01*
X218261905Y-95914819D02*
X218261905Y-94914819D01*
X218261905Y-94914819D02*
X218500000Y-94914819D01*
X218500000Y-94914819D02*
X218642857Y-94962438D01*
X218642857Y-94962438D02*
X218738095Y-95057676D01*
X218738095Y-95057676D02*
X218785714Y-95152914D01*
X218785714Y-95152914D02*
X218833333Y-95343390D01*
X218833333Y-95343390D02*
X218833333Y-95486247D01*
X218833333Y-95486247D02*
X218785714Y-95676723D01*
X218785714Y-95676723D02*
X218738095Y-95771961D01*
X218738095Y-95771961D02*
X218642857Y-95867200D01*
X218642857Y-95867200D02*
X218500000Y-95914819D01*
X218500000Y-95914819D02*
X218261905Y-95914819D01*
X219785714Y-95914819D02*
X219214286Y-95914819D01*
X219500000Y-95914819D02*
X219500000Y-94914819D01*
X219500000Y-94914819D02*
X219404762Y-95057676D01*
X219404762Y-95057676D02*
X219309524Y-95152914D01*
X219309524Y-95152914D02*
X219214286Y-95200533D01*
D11*
%TO.C,KEY2*%
X238750000Y-102500000D02*
G75*
G02*
X228750000Y-102500000I-5000000J0D01*
G01*
X228750000Y-102500000D02*
G75*
G02*
X238750000Y-102500000I5000000J0D01*
G01*
X241750000Y-102500000D02*
G75*
G02*
X225750000Y-102500000I-8000000J0D01*
G01*
X225750000Y-102500000D02*
G75*
G02*
X241750000Y-102500000I8000000J0D01*
G01*
%TO.C,KEY5*%
X72000000Y-93600000D02*
G75*
G02*
X62000000Y-93600000I-5000000J0D01*
G01*
X62000000Y-93600000D02*
G75*
G02*
X72000000Y-93600000I5000000J0D01*
G01*
X75000000Y-93600000D02*
G75*
G02*
X59000000Y-93600000I-8000000J0D01*
G01*
X59000000Y-93600000D02*
G75*
G02*
X75000000Y-93600000I8000000J0D01*
G01*
D10*
%TO.C,J1*%
X100700000Y-88500000D02*
X100700000Y-77000000D01*
X99800000Y-88500000D02*
X100700000Y-88500000D01*
X99800000Y-84000000D02*
X99800000Y-88500000D01*
X84200000Y-88500000D02*
X84200000Y-84000000D01*
X84200000Y-84000000D02*
X99800000Y-84000000D01*
X83300000Y-88500000D02*
X84200000Y-88500000D01*
X83300000Y-77000000D02*
X83300000Y-88500000D01*
D12*
X101350000Y-86200000D02*
G75*
G02*
X101150000Y-86200000I-100000J0D01*
G01*
X101150000Y-86200000D02*
G75*
G02*
X101350000Y-86200000I100000J0D01*
G01*
D11*
%TO.C,KEY6*%
X38000000Y-102500000D02*
G75*
G02*
X28000000Y-102500000I-5000000J0D01*
G01*
X28000000Y-102500000D02*
G75*
G02*
X38000000Y-102500000I5000000J0D01*
G01*
X41000000Y-102500000D02*
G75*
G02*
X25000000Y-102500000I-8000000J0D01*
G01*
X25000000Y-102500000D02*
G75*
G02*
X41000000Y-102500000I8000000J0D01*
G01*
%TO.C,KEY4*%
X72000000Y-111400000D02*
G75*
G02*
X62000000Y-111400000I-5000000J0D01*
G01*
X62000000Y-111400000D02*
G75*
G02*
X72000000Y-111400000I5000000J0D01*
G01*
X75000000Y-111400000D02*
G75*
G02*
X59000000Y-111400000I-8000000J0D01*
G01*
X59000000Y-111400000D02*
G75*
G02*
X75000000Y-111400000I8000000J0D01*
G01*
%TO.C,KEY1*%
X155000000Y-102500000D02*
G75*
G02*
X145000000Y-102500000I-5000000J0D01*
G01*
X145000000Y-102500000D02*
G75*
G02*
X155000000Y-102500000I5000000J0D01*
G01*
X158000000Y-102500000D02*
G75*
G02*
X142000000Y-102500000I-8000000J0D01*
G01*
X142000000Y-102500000D02*
G75*
G02*
X158000000Y-102500000I8000000J0D01*
G01*
%TO.C,KEY3*%
X272000000Y-102500000D02*
G75*
G02*
X262000000Y-102500000I-5000000J0D01*
G01*
X262000000Y-102500000D02*
G75*
G02*
X272000000Y-102500000I5000000J0D01*
G01*
X275000000Y-102500000D02*
G75*
G02*
X259000000Y-102500000I-8000000J0D01*
G01*
X259000000Y-102500000D02*
G75*
G02*
X275000000Y-102500000I8000000J0D01*
G01*
D13*
%TO.C,D4*%
X220560000Y-101420000D02*
X220560000Y-101264000D01*
X220560000Y-103736000D02*
X220560000Y-103580000D01*
X217328563Y-101420000D02*
G75*
G02*
X220560000Y-101264484I1671437J-1080000D01*
G01*
X217959039Y-101420000D02*
G75*
G02*
X220040961Y-101420000I1040961J-1080000D01*
G01*
X220040961Y-103580000D02*
G75*
G02*
X217959039Y-103580000I-1040961J1080000D01*
G01*
X220560000Y-103735516D02*
G75*
G02*
X217328563Y-103580000I-1560000J1235516D01*
G01*
%TO.C,D7*%
X220560000Y-111420000D02*
X220560000Y-111264000D01*
X220560000Y-113736000D02*
X220560000Y-113580000D01*
X217328563Y-111420000D02*
G75*
G02*
X220560000Y-111264484I1671437J-1080000D01*
G01*
X217959039Y-111420000D02*
G75*
G02*
X220040961Y-111420000I1040961J-1080000D01*
G01*
X220040961Y-113580000D02*
G75*
G02*
X217959039Y-113580000I-1040961J1080000D01*
G01*
X220560000Y-113735516D02*
G75*
G02*
X217328563Y-113580000I-1560000J1235516D01*
G01*
%TO.C,D9*%
X50440000Y-111264000D02*
X50440000Y-111420000D01*
X50440000Y-113580000D02*
X50440000Y-113736000D01*
X50440000Y-111264484D02*
G75*
G02*
X53671437Y-111420000I1560000J-1235516D01*
G01*
X50959039Y-111420000D02*
G75*
G02*
X53040961Y-111420000I1040961J-1080000D01*
G01*
X53040961Y-113580000D02*
G75*
G02*
X50959039Y-113580000I-1040961J1080000D01*
G01*
X53671437Y-113580000D02*
G75*
G02*
X50440000Y-113735516I-1671437J1080000D01*
G01*
%TO.C,D2*%
X80440000Y-92364000D02*
X80440000Y-92520000D01*
X80440000Y-94680000D02*
X80440000Y-94836000D01*
X80440000Y-92364484D02*
G75*
G02*
X83671437Y-92520000I1560000J-1235516D01*
G01*
X80959039Y-92520000D02*
G75*
G02*
X83040961Y-92520000I1040961J-1080000D01*
G01*
X83040961Y-94680000D02*
G75*
G02*
X80959039Y-94680000I-1040961J1080000D01*
G01*
X83671437Y-94680000D02*
G75*
G02*
X80440000Y-94835516I-1671437J1080000D01*
G01*
%TO.C,D3*%
X50440000Y-91264000D02*
X50440000Y-91420000D01*
X50440000Y-93580000D02*
X50440000Y-93736000D01*
X50440000Y-91264484D02*
G75*
G02*
X53671437Y-91420000I1560000J-1235516D01*
G01*
X50959039Y-91420000D02*
G75*
G02*
X53040961Y-91420000I1040961J-1080000D01*
G01*
X53040961Y-93580000D02*
G75*
G02*
X50959039Y-93580000I-1040961J1080000D01*
G01*
X53671437Y-93580000D02*
G75*
G02*
X50440000Y-93735516I-1671437J1080000D01*
G01*
%TO.C,D5*%
X80440000Y-110164000D02*
X80440000Y-110320000D01*
X80440000Y-112480000D02*
X80440000Y-112636000D01*
X80440000Y-110164484D02*
G75*
G02*
X83671437Y-110320000I1560000J-1235516D01*
G01*
X80959039Y-110320000D02*
G75*
G02*
X83040961Y-110320000I1040961J-1080000D01*
G01*
X83040961Y-112480000D02*
G75*
G02*
X80959039Y-112480000I-1040961J1080000D01*
G01*
X83671437Y-112480000D02*
G75*
G02*
X80440000Y-112635516I-1671437J1080000D01*
G01*
%TO.C,D8*%
X250560000Y-101420000D02*
X250560000Y-101264000D01*
X250560000Y-103736000D02*
X250560000Y-103580000D01*
X247328563Y-101420000D02*
G75*
G02*
X250560000Y-101264484I1671437J-1080000D01*
G01*
X247959039Y-101420000D02*
G75*
G02*
X250040961Y-101420000I1040961J-1080000D01*
G01*
X250040961Y-103580000D02*
G75*
G02*
X247959039Y-103580000I-1040961J1080000D01*
G01*
X250560000Y-103735516D02*
G75*
G02*
X247328563Y-103580000I-1560000J1235516D01*
G01*
%TO.C,D6*%
X50440000Y-101264000D02*
X50440000Y-101420000D01*
X50440000Y-103580000D02*
X50440000Y-103736000D01*
X50440000Y-101264484D02*
G75*
G02*
X53671437Y-101420000I1560000J-1235516D01*
G01*
X50959039Y-101420000D02*
G75*
G02*
X53040961Y-101420000I1040961J-1080000D01*
G01*
X53040961Y-103580000D02*
G75*
G02*
X50959039Y-103580000I-1040961J1080000D01*
G01*
X53671437Y-103580000D02*
G75*
G02*
X50440000Y-103735516I-1671437J1080000D01*
G01*
%TO.C,D1*%
X220560000Y-91420000D02*
X220560000Y-91264000D01*
X220560000Y-93736000D02*
X220560000Y-93580000D01*
X217328563Y-91420000D02*
G75*
G02*
X220560000Y-91264484I1671437J-1080000D01*
G01*
X217959039Y-91420000D02*
G75*
G02*
X220040961Y-91420000I1040961J-1080000D01*
G01*
X220040961Y-93580000D02*
G75*
G02*
X217959039Y-93580000I-1040961J1080000D01*
G01*
X220560000Y-93735516D02*
G75*
G02*
X217328563Y-93580000I-1560000J1235516D01*
G01*
%TD*%
M02*
