M48
; DRILL file {KiCad 9.0.6} date 2025-11-11T22:46:27-0800
; FORMAT={-:-/ absolute / metric / decimal}
; #@! TF.CreationDate,2025-11-11T22:46:27-08:00
; #@! TF.GenerationSoftware,Kicad,Pcbnew,9.0.6
; #@! TF.FileFunction,Plated,1,2,PTH
FMAT,2
METRIC
; #@! TA.AperFunction,Plated,PTH,ViaDrill
T1C0.300
; #@! TA.AperFunction,Plated,PTH,ComponentDrill
T2C0.300
; #@! TA.AperFunction,Plated,PTH,ComponentDrill
T3C0.500
; #@! TA.AperFunction,Plated,PTH,ComponentDrill
T4C0.780
; #@! TA.AperFunction,Plated,PTH,ComponentDrill
T5C0.900
; #@! TA.AperFunction,Plated,PTH,ComponentDrill
T6C1.000
; #@! TA.AperFunction,Plated,PTH,ComponentDrill
T7C3.500
%
G90
G05
T1
X91.25Y-92.0
X91.425Y-115.2
X97.85Y-81.27
X99.85Y-115.225
X100.0Y-91.75
X102.0Y-94.0
X112.7Y-100.38
X114.85Y-98.27
X116.97Y-100.4
X119.08Y-98.27
X120.41Y-112.76
X121.21Y-100.42
X125.25Y-87.5
X127.58Y-89.77
X127.59Y-85.54
X163.62Y-87.69
X165.77Y-89.8
X168.1Y-88.05
X169.43Y-105.71
X169.666Y-82.666
X171.075Y-107.4
X171.16Y-101.66
X171.4Y-117.84
X171.9Y-108.025
X172.5Y-108.775
X174.22Y-89.76
X174.84Y-106.4
X175.85Y-104.98
X178.46Y-89.76
X180.47Y-97.88
X183.0Y-100.45
X184.23Y-99.86
X191.01Y-93.72
X193.12Y-112.58
X193.95Y-109.86
X198.7Y-112.58
X200.43Y-109.82
X204.4Y-87.825
X206.125Y-87.825
X211.47Y-85.33
X216.53Y-123.7
T2
X184.55Y-112.08
X184.55Y-113.48
X185.25Y-111.38
X185.25Y-112.78
X185.25Y-114.18
X185.95Y-112.08
X185.95Y-113.48
X186.65Y-111.38
X186.65Y-112.78
X186.65Y-114.18
X187.35Y-112.08
X187.35Y-113.48
T3
X33.0Y-90.78
X33.0Y-114.22
X56.85Y-99.46
X56.85Y-117.26
X77.15Y-87.74
X77.15Y-105.54
X92.375Y-102.5
X93.144Y-100.644
X93.144Y-104.356
X95.0Y-99.875
X95.0Y-105.125
X96.856Y-100.644
X96.856Y-104.356
X97.625Y-102.5
X141.713Y-110.787
X154.075Y-82.5
X154.075Y-122.45
X154.844Y-80.644
X154.844Y-84.356
X154.844Y-120.594
X154.844Y-124.306
X156.7Y-79.875
X156.7Y-85.125
X156.7Y-119.825
X156.7Y-125.075
X158.287Y-94.213
X158.556Y-80.644
X158.556Y-84.356
X158.556Y-120.594
X158.556Y-124.306
X159.325Y-82.5
X159.325Y-122.45
X202.375Y-102.5
X203.144Y-100.644
X203.144Y-104.356
X205.0Y-99.875
X205.0Y-105.125
X206.856Y-100.644
X206.856Y-104.356
X207.625Y-102.5
X225.463Y-94.213
X242.037Y-110.787
X267.0Y-90.78
X267.0Y-114.22
T4
X33.0Y-102.5
X67.0Y-93.6
X67.0Y-111.4
X150.0Y-102.5
X233.75Y-102.5
X267.0Y-102.5
T5
X50.73Y-92.5
X50.73Y-102.5
X50.73Y-112.5
X53.27Y-92.5
X53.27Y-102.5
X53.27Y-112.5
X80.73Y-93.6
X80.73Y-111.4
X83.27Y-93.6
X83.27Y-111.4
X217.73Y-92.5
X217.73Y-102.5
X217.73Y-112.5
X220.27Y-92.5
X220.27Y-102.5
X220.27Y-112.5
X247.73Y-102.5
X250.27Y-102.5
T6
X85.75Y-86.2
X88.25Y-86.2
X90.75Y-86.2
X93.25Y-86.2
X95.75Y-86.2
X98.25Y-86.2
T7
X95.0Y-102.5
X156.7Y-82.5
X156.7Y-122.45
X205.0Y-102.5
M30
