%TF.GenerationSoftware,KiCad,Pcbnew,9.0.6*%
%TF.CreationDate,2025-11-11T22:46:24-08:00*%
%TF.ProjectId,HPA300,48504133-3030-42e6-9b69-6361645f7063,rev?*%
%TF.SameCoordinates,Original*%
%TF.FileFunction,Profile,NP*%
%FSLAX46Y46*%
G04 Gerber Fmt 4.6, Leading zero omitted, Abs format (unit mm)*
G04 Created by KiCad (PCBNEW 9.0.6) date 2025-11-11 22:46:24*
%MOMM*%
%LPD*%
G01*
G04 APERTURE LIST*
%TA.AperFunction,Profile*%
%ADD10C,0.050000*%
%TD*%
G04 APERTURE END LIST*
D10*
X28000000Y-80000000D02*
G75*
G02*
X31000000Y-77000000I3000000J0D01*
G01*
X163400000Y-125021320D02*
G75*
G02*
X160421320Y-128000000I-2978700J20D01*
G01*
X31000000Y-128000000D02*
G75*
G02*
X28000000Y-125000000I0J3000000D01*
G01*
X255600000Y-81600000D02*
X262600000Y-81600000D01*
X262600000Y-85000000D01*
X255600000Y-85000000D01*
X255600000Y-81600000D01*
X28000000Y-125000000D02*
X28000000Y-80000000D01*
X270000000Y-77000000D02*
G75*
G02*
X273000000Y-80000000I0J-3000000D01*
G01*
X160421300Y-128000000D02*
X31000000Y-128000000D01*
X163400000Y-124878680D02*
G75*
G02*
X166378680Y-121900000I2978700J-20D01*
G01*
X38600000Y-81600000D02*
X45600000Y-81600000D01*
X45600000Y-85000000D01*
X38600000Y-85000000D01*
X38600000Y-81600000D01*
X163400000Y-124878700D02*
X163400000Y-125021320D01*
X273000000Y-125000000D02*
G75*
G02*
X270000000Y-128000000I-3000000J0D01*
G01*
X208523750Y-121897565D02*
X166378680Y-121900000D01*
X273000000Y-80000000D02*
X273000000Y-125000000D01*
X208523755Y-121897565D02*
G75*
G02*
X211502435Y-124876245I45J-2978635D01*
G01*
X181200000Y-81600000D02*
X188200000Y-81600000D01*
X188200000Y-85000000D01*
X181200000Y-85000000D01*
X181200000Y-81600000D01*
X255600000Y-120000000D02*
X262600000Y-120000000D01*
X262600000Y-123400000D01*
X255600000Y-123400000D01*
X255600000Y-120000000D01*
X214480000Y-127998680D02*
X270000000Y-128000000D01*
X112500000Y-120000000D02*
X119500000Y-120000000D01*
X119500000Y-123400000D01*
X112500000Y-123400000D01*
X112500000Y-120000000D01*
X214480000Y-127998680D02*
G75*
G02*
X211501320Y-125020000I0J2978680D01*
G01*
X38600000Y-120000000D02*
X45600000Y-120000000D01*
X45600000Y-123400000D01*
X38600000Y-123400000D01*
X38600000Y-120000000D01*
X31000000Y-77000000D02*
X270000000Y-77000000D01*
X211501320Y-125020000D02*
X211502435Y-124876200D01*
M02*
