%TF.GenerationSoftware,KiCad,Pcbnew,9.0.6*%
%TF.CreationDate,2025-11-11T22:46:24-08:00*%
%TF.ProjectId,HPA300,48504133-3030-42e6-9b69-6361645f7063,rev?*%
%TF.SameCoordinates,Original*%
%TF.FileFunction,Soldermask,Bot*%
%TF.FilePolarity,Negative*%
%FSLAX46Y46*%
G04 Gerber Fmt 4.6, Leading zero omitted, Abs format (unit mm)*
G04 Created by KiCad (PCBNEW 9.0.6) date 2025-11-11 22:46:24*
%MOMM*%
%LPD*%
G01*
G04 APERTURE LIST*
G04 Aperture macros list*
%AMRoundRect*
0 Rectangle with rounded corners*
0 $1 Rounding radius*
0 $2 $3 $4 $5 $6 $7 $8 $9 X,Y pos of 4 corners*
0 Add a 4 corners polygon primitive as box body*
4,1,4,$2,$3,$4,$5,$6,$7,$8,$9,$2,$3,0*
0 Add four circle primitives for the rounded corners*
1,1,$1+$1,$2,$3*
1,1,$1+$1,$4,$5*
1,1,$1+$1,$6,$7*
1,1,$1+$1,$8,$9*
0 Add four rect primitives between the rounded corners*
20,1,$1+$1,$2,$3,$4,$5,0*
20,1,$1+$1,$4,$5,$6,$7,0*
20,1,$1+$1,$6,$7,$8,$9,0*
20,1,$1+$1,$8,$9,$2,$3,0*%
G04 Aperture macros list end*
%ADD10C,1.258305*%
%ADD11RoundRect,0.102000X-0.850000X0.400000X-0.850000X-0.400000X0.850000X-0.400000X0.850000X0.400000X0*%
%ADD12RoundRect,0.250000X-0.450000X0.262500X-0.450000X-0.262500X0.450000X-0.262500X0.450000X0.262500X0*%
%ADD13RoundRect,0.102000X0.754000X0.754000X-0.754000X0.754000X-0.754000X-0.754000X0.754000X-0.754000X0*%
%ADD14C,1.712000*%
%ADD15RoundRect,0.102000X-0.750000X-0.450000X0.750000X-0.450000X0.750000X0.450000X-0.750000X0.450000X0*%
%ADD16RoundRect,0.102000X-0.450000X-0.750000X0.450000X-0.750000X0.450000X0.750000X-0.450000X0.750000X0*%
%ADD17RoundRect,0.102000X-0.450000X-0.450000X0.450000X-0.450000X0.450000X0.450000X-0.450000X0.450000X0*%
%ADD18R,1.000000X0.400000*%
%ADD19RoundRect,0.112500X0.637500X-0.112500X0.637500X0.112500X-0.637500X0.112500X-0.637500X-0.112500X0*%
%ADD20R,1.800000X1.800000*%
%ADD21C,1.800000*%
%ADD22C,0.800000*%
%ADD23C,7.000000*%
%ADD24RoundRect,0.250000X0.262500X0.450000X-0.262500X0.450000X-0.262500X-0.450000X0.262500X-0.450000X0*%
%ADD25RoundRect,0.250000X-0.650000X0.325000X-0.650000X-0.325000X0.650000X-0.325000X0.650000X0.325000X0*%
%ADD26RoundRect,0.375000X-0.375000X0.625000X-0.375000X-0.625000X0.375000X-0.625000X0.375000X0.625000X0*%
%ADD27RoundRect,0.500000X-1.400000X0.500000X-1.400000X-0.500000X1.400000X-0.500000X1.400000X0.500000X0*%
%ADD28RoundRect,0.250000X-0.262500X-0.450000X0.262500X-0.450000X0.262500X0.450000X-0.262500X0.450000X0*%
%ADD29RoundRect,0.250000X-0.475000X0.250000X-0.475000X-0.250000X0.475000X-0.250000X0.475000X0.250000X0*%
%ADD30C,0.650000*%
%ADD31RoundRect,0.150000X-0.150000X-0.425000X0.150000X-0.425000X0.150000X0.425000X-0.150000X0.425000X0*%
%ADD32RoundRect,0.075000X-0.075000X-0.500000X0.075000X-0.500000X0.075000X0.500000X-0.075000X0.500000X0*%
%ADD33RoundRect,0.250000X-0.840000X-0.750000X0.840000X-0.750000X0.840000X0.750000X-0.840000X0.750000X0*%
%ADD34RoundRect,0.250000X-1.000000X-0.650000X1.000000X-0.650000X1.000000X0.650000X-1.000000X0.650000X0*%
%ADD35RoundRect,0.250000X-0.250000X-0.475000X0.250000X-0.475000X0.250000X0.475000X-0.250000X0.475000X0*%
%ADD36RoundRect,0.175000X0.175000X0.325000X-0.175000X0.325000X-0.175000X-0.325000X0.175000X-0.325000X0*%
%ADD37RoundRect,0.150000X0.200000X0.150000X-0.200000X0.150000X-0.200000X-0.150000X0.200000X-0.150000X0*%
%ADD38RoundRect,0.250000X0.450000X-0.262500X0.450000X0.262500X-0.450000X0.262500X-0.450000X-0.262500X0*%
%ADD39C,1.000000*%
%ADD40C,0.990600*%
%ADD41C,0.787400*%
%ADD42RoundRect,0.250000X-0.550000X1.500000X-0.550000X-1.500000X0.550000X-1.500000X0.550000X1.500000X0*%
%ADD43RoundRect,0.243750X0.243750X0.456250X-0.243750X0.456250X-0.243750X-0.456250X0.243750X-0.456250X0*%
%ADD44RoundRect,0.100000X-0.225000X-0.100000X0.225000X-0.100000X0.225000X0.100000X-0.225000X0.100000X0*%
G04 APERTURE END LIST*
%TO.C,KEY2*%
D10*
X234379152Y-102500000D02*
G75*
G02*
X233120848Y-102500000I-629152J0D01*
G01*
X233120848Y-102500000D02*
G75*
G02*
X234379152Y-102500000I629152J0D01*
G01*
%TO.C,KEY5*%
X67629152Y-93600000D02*
G75*
G02*
X66370848Y-93600000I-629152J0D01*
G01*
X66370848Y-93600000D02*
G75*
G02*
X67629152Y-93600000I629152J0D01*
G01*
%TO.C,KEY6*%
X33629152Y-102500000D02*
G75*
G02*
X32370848Y-102500000I-629152J0D01*
G01*
X32370848Y-102500000D02*
G75*
G02*
X33629152Y-102500000I629152J0D01*
G01*
%TO.C,KEY4*%
X67629152Y-111400000D02*
G75*
G02*
X66370848Y-111400000I-629152J0D01*
G01*
X66370848Y-111400000D02*
G75*
G02*
X67629152Y-111400000I629152J0D01*
G01*
%TO.C,KEY1*%
X150629152Y-102500000D02*
G75*
G02*
X149370848Y-102500000I-629152J0D01*
G01*
X149370848Y-102500000D02*
G75*
G02*
X150629152Y-102500000I629152J0D01*
G01*
%TO.C,KEY3*%
X267629152Y-102500000D02*
G75*
G02*
X266370848Y-102500000I-629152J0D01*
G01*
X266370848Y-102500000D02*
G75*
G02*
X267629152Y-102500000I629152J0D01*
G01*
%TD*%
D11*
%TO.C,SW1*%
X205000000Y-92900000D03*
X205000000Y-96300000D03*
%TD*%
D12*
%TO.C,R5*%
X214180000Y-101587500D03*
X214180000Y-103412500D03*
%TD*%
%TO.C,R8*%
X214180000Y-113422500D03*
X214180000Y-111597500D03*
%TD*%
%TO.C,R2*%
X214180000Y-93462500D03*
X214180000Y-91637500D03*
%TD*%
D13*
%TO.C,J1*%
X98250000Y-86200000D03*
D14*
X95750000Y-86200000D03*
X93250000Y-86200000D03*
X90750000Y-86200000D03*
X88250000Y-86200000D03*
X85750000Y-86200000D03*
%TD*%
D15*
%TO.C,U1*%
X178700000Y-120500000D03*
X178700000Y-119230000D03*
X178700000Y-117960000D03*
X178700000Y-116690000D03*
X178700000Y-115420000D03*
X178700000Y-114150000D03*
X178700000Y-112880000D03*
X178700000Y-111610000D03*
X178700000Y-110340000D03*
X178700000Y-109070000D03*
X178700000Y-107800000D03*
X178700000Y-106530000D03*
X178700000Y-105260000D03*
X178700000Y-103990000D03*
D16*
X180465000Y-102740000D03*
X181735000Y-102740000D03*
X183005000Y-102740000D03*
X184275000Y-102740000D03*
X185545000Y-102740000D03*
X186815000Y-102740000D03*
X188085000Y-102740000D03*
X189355000Y-102740000D03*
X190625000Y-102740000D03*
X191895000Y-102740000D03*
X193165000Y-102740000D03*
X194435000Y-102740000D03*
D15*
X196200000Y-103990000D03*
X196200000Y-105260000D03*
X196200000Y-106530000D03*
X196200000Y-107800000D03*
X196200000Y-109070000D03*
X196200000Y-110340000D03*
X196200000Y-111610000D03*
X196200000Y-112880000D03*
X196200000Y-114150000D03*
X196200000Y-115420000D03*
X196200000Y-116690000D03*
X196200000Y-117960000D03*
X196200000Y-119230000D03*
X196200000Y-120500000D03*
D17*
X184550000Y-114180000D03*
X184550000Y-112780000D03*
X184550000Y-111380000D03*
X185950000Y-114180000D03*
X185950000Y-112780000D03*
X185950000Y-111380000D03*
X187350000Y-114180000D03*
X187350000Y-112780000D03*
X187350000Y-111380000D03*
%TD*%
D18*
%TO.C,U4*%
X123500000Y-84400000D03*
X123500000Y-85050000D03*
X123500000Y-85700000D03*
X123500000Y-86350000D03*
X123500000Y-87000000D03*
X123500000Y-87650000D03*
X123500000Y-88300000D03*
X123500000Y-88950000D03*
X123500000Y-89600000D03*
X128900000Y-89600000D03*
X128900000Y-88950000D03*
X128900000Y-88300000D03*
X128900000Y-87650000D03*
X128900000Y-87000000D03*
X128900000Y-86350000D03*
X128900000Y-85700000D03*
X128900000Y-85050000D03*
X128900000Y-84400000D03*
%TD*%
D19*
%TO.C,U2*%
X137790000Y-84050000D03*
X137790000Y-84700000D03*
X137790000Y-85350000D03*
X137790000Y-86000000D03*
X137790000Y-86650000D03*
X137790000Y-87300000D03*
X137790000Y-87950000D03*
X137790000Y-88600000D03*
X131990000Y-88600000D03*
X131990000Y-87950000D03*
X131990000Y-87300000D03*
X131990000Y-86650000D03*
X131990000Y-86000000D03*
X131990000Y-85350000D03*
X131990000Y-84700000D03*
X131990000Y-84050000D03*
%TD*%
D11*
%TO.C,SW2*%
X193100000Y-97130000D03*
X193100000Y-93730000D03*
%TD*%
D20*
%TO.C,D4*%
X220270000Y-102500000D03*
D21*
X217730000Y-102500000D03*
%TD*%
D20*
%TO.C,D7*%
X220270000Y-112500000D03*
D21*
X217730000Y-112500000D03*
%TD*%
D20*
%TO.C,D9*%
X50730000Y-112500000D03*
D21*
X53270000Y-112500000D03*
%TD*%
D22*
%TO.C,H3*%
X154075000Y-122450000D03*
X154843845Y-120593845D03*
X154843845Y-124306155D03*
X156700000Y-119825000D03*
D23*
X156700000Y-122450000D03*
D22*
X156700000Y-125075000D03*
X158556155Y-120593845D03*
X158556155Y-124306155D03*
X159325000Y-122450000D03*
%TD*%
D20*
%TO.C,D2*%
X80730000Y-93600000D03*
D21*
X83270000Y-93600000D03*
%TD*%
D22*
%TO.C,H2*%
X154075000Y-82500000D03*
X154843845Y-80643845D03*
X154843845Y-84356155D03*
X156700000Y-79875000D03*
D23*
X156700000Y-82500000D03*
D22*
X156700000Y-85125000D03*
X158556155Y-80643845D03*
X158556155Y-84356155D03*
X159325000Y-82500000D03*
%TD*%
%TO.C,H4*%
X202375000Y-102500000D03*
X203143845Y-100643845D03*
X203143845Y-104356155D03*
X205000000Y-99875000D03*
D23*
X205000000Y-102500000D03*
D22*
X205000000Y-105125000D03*
X206856155Y-100643845D03*
X206856155Y-104356155D03*
X207625000Y-102500000D03*
%TD*%
D20*
%TO.C,D3*%
X50730000Y-92500000D03*
D21*
X53270000Y-92500000D03*
%TD*%
D20*
%TO.C,D5*%
X80730000Y-111400000D03*
D21*
X83270000Y-111400000D03*
%TD*%
D20*
%TO.C,D8*%
X250270000Y-102500000D03*
D21*
X247730000Y-102500000D03*
%TD*%
D20*
%TO.C,D6*%
X50730000Y-102500000D03*
D21*
X53270000Y-102500000D03*
%TD*%
D20*
%TO.C,D1*%
X220270000Y-92500000D03*
D21*
X217730000Y-92500000D03*
%TD*%
D22*
%TO.C,H1*%
X92375000Y-102500000D03*
X93143845Y-100643845D03*
X93143845Y-104356155D03*
X95000000Y-99875000D03*
D23*
X95000000Y-102500000D03*
D22*
X95000000Y-105125000D03*
X96856155Y-100643845D03*
X96856155Y-104356155D03*
X97625000Y-102500000D03*
%TD*%
D24*
%TO.C,R9*%
X249887500Y-98775000D03*
X248062500Y-98775000D03*
%TD*%
D12*
%TO.C,R21*%
X254480000Y-102467500D03*
X254480000Y-104292500D03*
%TD*%
D25*
%TO.C,C6*%
X110760000Y-94965000D03*
X110760000Y-97915000D03*
%TD*%
D26*
%TO.C,U3*%
X102850000Y-91200000D03*
X105150000Y-91200000D03*
D27*
X105150000Y-97500000D03*
D26*
X107450000Y-91200000D03*
%TD*%
D12*
%TO.C,R17*%
X141300000Y-84625000D03*
X141300000Y-86450000D03*
%TD*%
D25*
%TO.C,C1*%
X173000000Y-117525000D03*
X173000000Y-120475000D03*
%TD*%
D28*
%TO.C,R10*%
X51187500Y-108600000D03*
X53012500Y-108600000D03*
%TD*%
D29*
%TO.C,C3*%
X175350000Y-118575000D03*
X175350000Y-120475000D03*
%TD*%
D24*
%TO.C,R3*%
X85087500Y-97725000D03*
X83262500Y-97725000D03*
%TD*%
D30*
%TO.C,J2*%
X167910000Y-83315000D03*
X173690000Y-83315000D03*
D31*
X167600000Y-84390000D03*
X168400000Y-84390000D03*
D32*
X169550000Y-84390000D03*
X170550000Y-84390000D03*
X171050000Y-84390000D03*
X172050000Y-84390000D03*
D31*
X173200000Y-84390000D03*
X174000000Y-84390000D03*
X174000000Y-84390000D03*
X173200000Y-84390000D03*
D32*
X172550000Y-84390000D03*
X171550000Y-84390000D03*
X170050000Y-84390000D03*
X169050000Y-84390000D03*
D31*
X168400000Y-84390000D03*
X167600000Y-84390000D03*
D33*
X165690000Y-79885000D03*
X165690000Y-83815000D03*
X175910000Y-79885000D03*
X175910000Y-83815000D03*
%TD*%
D34*
%TO.C,D10*%
X147100000Y-79420000D03*
X151100000Y-79420000D03*
%TD*%
D28*
%TO.C,R19*%
X164927500Y-105720000D03*
X166752500Y-105720000D03*
%TD*%
D12*
%TO.C,R27*%
X134860000Y-91190000D03*
X134860000Y-93015000D03*
%TD*%
D29*
%TO.C,C5*%
X110730000Y-91210000D03*
X110730000Y-93110000D03*
%TD*%
D28*
%TO.C,R12*%
X164900000Y-87225000D03*
X166725000Y-87225000D03*
%TD*%
D35*
%TO.C,C2*%
X207540000Y-96080000D03*
X209440000Y-96080000D03*
%TD*%
D36*
%TO.C,D13*%
X171300000Y-87250000D03*
D37*
X171300000Y-88950000D03*
X169300000Y-88950000D03*
X169300000Y-87050000D03*
%TD*%
D12*
%TO.C,R15*%
X196160000Y-95297500D03*
X196160000Y-97122500D03*
%TD*%
D28*
%TO.C,R13*%
X174900000Y-87200000D03*
X176725000Y-87200000D03*
%TD*%
D12*
%TO.C,R14*%
X200790000Y-95312500D03*
X200790000Y-97137500D03*
%TD*%
D24*
%TO.C,R6*%
X85087500Y-115225000D03*
X83262500Y-115225000D03*
%TD*%
D28*
%TO.C,R4*%
X51207500Y-88580000D03*
X53032500Y-88580000D03*
%TD*%
D24*
%TO.C,R11*%
X98337500Y-95375000D03*
X96512500Y-95375000D03*
%TD*%
D38*
%TO.C,R16*%
X141300000Y-82650000D03*
X141300000Y-80825000D03*
%TD*%
D24*
%TO.C,R25*%
X128912500Y-81500000D03*
X127087500Y-81500000D03*
%TD*%
D39*
%TO.C,TP2*%
X109020000Y-101420000D03*
%TD*%
D40*
%TO.C,J3*%
X208650000Y-84060000D03*
X209666000Y-89140000D03*
X207634000Y-89140000D03*
D41*
X209285000Y-85330000D03*
X208015000Y-85330000D03*
X209285000Y-86600000D03*
X208015000Y-86600000D03*
X209285000Y-87870000D03*
X208015000Y-87870000D03*
%TD*%
D12*
%TO.C,R18*%
X141250000Y-88450000D03*
X141250000Y-90275000D03*
%TD*%
%TO.C,R28*%
X131950000Y-91187500D03*
X131950000Y-93012500D03*
%TD*%
D42*
%TO.C,C4*%
X116500000Y-89600000D03*
X116500000Y-95000000D03*
%TD*%
D28*
%TO.C,R22*%
X77900000Y-122500000D03*
X79725000Y-122500000D03*
%TD*%
%TO.C,R7*%
X51207500Y-98590000D03*
X53032500Y-98590000D03*
%TD*%
D43*
%TO.C,D12*%
X98337500Y-92900000D03*
X96462500Y-92900000D03*
%TD*%
D12*
%TO.C,R20*%
X224300000Y-111612500D03*
X224300000Y-113437500D03*
%TD*%
D39*
%TO.C,TP3*%
X107500000Y-87000000D03*
%TD*%
D12*
%TO.C,R24*%
X46650000Y-102525000D03*
X46650000Y-104350000D03*
%TD*%
D28*
%TO.C,R1*%
X207517500Y-93080000D03*
X209342500Y-93080000D03*
%TD*%
D44*
%TO.C,Q1*%
X199375000Y-87225000D03*
X199375000Y-86575000D03*
X199375000Y-85925000D03*
X201275000Y-85925000D03*
X201275000Y-86575000D03*
X201275000Y-87225000D03*
%TD*%
D39*
%TO.C,TP1*%
X97850000Y-81270000D03*
%TD*%
D28*
%TO.C,R23*%
X77887500Y-101700000D03*
X79712500Y-101700000D03*
%TD*%
D39*
%TO.C,TP4*%
X170130000Y-119810000D03*
%TD*%
D12*
%TO.C,R26*%
X137770000Y-91227500D03*
X137770000Y-93052500D03*
%TD*%
M02*
